<svg width="254" height="17" viewBox="0 0 254 17" fill="none" xmlns="http://www.w3.org/2000/svg">
<path d="M0 2.83333H5.75425V16.771H9.00795V2.83333H14.7622V0.228961H0V2.83333Z" fill="black"/>
<path d="M29.0725 11.4192L19.462 0.228961H16.8108V16.771H20.0344V5.55219L29.6148 16.771H32.2961V0.228961H29.0725V11.4192Z" fill="black"/>
<path d="M39.7977 0.228961H36.5741V16.771H48.9261V14.1667H39.7977V0.228961Z" fill="black"/>
<path d="M68.6592 0.91582C67.5445 0.429288 66.219 0.20034 64.7126 0.20034H57.5424V16.771H60.766V11.9916H64.7126C66.219 11.9916 67.5445 11.7626 68.6592 11.2761C69.7739 10.7896 70.6476 10.1313 71.2502 9.24411C71.8527 8.35691 72.154 7.29798 72.154 6.12458C72.154 4.92256 71.8527 3.86363 71.2502 2.97643C70.6476 2.08922 69.7739 1.40235 68.6592 0.91582ZM67.7856 8.52863C67.0625 9.10102 65.9779 9.38721 64.562 9.38721H60.766V2.80472H64.562C65.9779 2.80472 67.0324 3.09091 67.7856 3.66331C68.5086 4.2357 68.8701 5.03704 68.8701 6.09597C68.8701 7.15489 68.5086 7.98485 67.7856 8.52863Z" fill="black"/>
<path d="M88.6033 9.32997C89.2359 8.44276 89.5673 7.35522 89.5673 6.12458C89.5673 4.92256 89.2661 3.86363 88.6635 2.97643C88.061 2.08922 87.2174 1.40236 86.0726 0.94445C84.9579 0.457918 83.6323 0.228961 82.126 0.228961H74.9558V16.771H78.1794V11.9343H82.126C82.4273 11.9343 82.6381 11.9343 82.7888 11.9057L86.3739 16.771H89.8686L85.8617 11.3333C87.0367 10.8754 87.9706 10.2172 88.6033 9.32997ZM85.1989 8.55724C84.4759 9.12963 83.3913 9.41582 81.9754 9.41582H78.1794V2.83333H81.9754C83.3913 2.83333 84.4458 3.11953 85.1989 3.69192C85.922 4.26431 86.2835 5.06566 86.2835 6.12458C86.2835 7.15488 85.922 7.98485 85.1989 8.55724Z" fill="black"/>
<path d="M105.715 1.08755C104.299 0.34344 102.673 0 100.925 0C99.1477 0 97.551 0.372059 96.135 1.08755C94.719 1.83166 93.5742 2.83334 92.7608 4.14984C91.9473 5.43772 91.5557 6.8973 91.5557 8.5C91.5557 10.1027 91.9473 11.5623 92.7608 12.8502C93.5742 14.138 94.6889 15.1684 96.135 15.9125C97.551 16.6566 99.1477 17 100.925 17C102.703 17 104.299 16.6279 105.715 15.9125C107.131 15.1684 108.276 14.1667 109.09 12.8788C109.903 11.5909 110.295 10.1313 110.295 8.5C110.295 6.86868 109.873 5.40909 109.09 4.12121C108.246 2.83333 107.131 1.80304 105.715 1.08755ZM106.228 11.4764C105.685 12.3636 104.962 13.0505 104.028 13.5657C103.094 14.0522 102.04 14.3098 100.895 14.3098C99.7201 14.3098 98.6958 14.0522 97.7618 13.5657C96.8279 13.0791 96.1049 12.3636 95.5626 11.4764C95.0203 10.5892 94.7793 9.58754 94.7793 8.47138C94.7793 7.35522 95.0504 6.38215 95.5626 5.49494C96.1049 4.60774 96.8279 3.92087 97.7618 3.40572C98.6958 2.91919 99.7502 2.66162 100.895 2.66162C102.07 2.66162 103.094 2.91919 104.028 3.40572C104.962 3.89225 105.685 4.60774 106.228 5.49494C106.77 6.38215 107.011 7.38384 107.011 8.47138C107.011 9.58754 106.77 10.5892 106.228 11.4764Z" fill="black"/>
<path d="M113.337 16.771H116.561V10.4461H124.966V7.84175H116.561V2.80472H126.051V0.228961H113.337V16.771Z" fill="black"/>
<path d="M132.016 9.61616H140.422V7.09765H132.016V2.80472H141.506V0.228961H128.762V16.771H141.838V14.1953H132.016V9.61616Z" fill="black"/>
<path d="M154.491 8.12794C153.647 7.81313 152.593 7.52694 151.297 7.24075C150.363 7.01179 149.61 6.81144 149.068 6.63973C148.526 6.46801 148.074 6.23905 147.712 5.92424C147.351 5.63804 147.17 5.23737 147.17 4.77946C147.17 4.09259 147.471 3.54883 148.104 3.14816C148.737 2.74748 149.671 2.54714 150.966 2.54714C151.749 2.54714 152.563 2.66162 153.376 2.89057C154.22 3.11953 155.003 3.43435 155.756 3.86365L156.78 1.48821C156.027 1.00168 155.154 0.658247 154.129 0.400672C153.105 0.143096 152.051 0.0286213 150.996 0.0286213C149.46 0.0286213 148.194 0.257574 147.14 0.686867C146.085 1.11616 145.302 1.71717 144.79 2.46128C144.278 3.20539 144.007 4.03536 144.007 4.95118C144.007 6.03873 144.308 6.89731 144.88 7.52694C145.483 8.15657 146.176 8.64309 146.989 8.92929C147.803 9.21548 148.887 9.53031 150.213 9.8165C151.147 10.0455 151.9 10.2458 152.442 10.4175C152.984 10.5892 153.436 10.8182 153.798 11.133C154.159 11.4478 154.34 11.8199 154.34 12.3064C154.34 12.9647 154.009 13.4798 153.376 13.8805C152.743 14.2812 151.779 14.4815 150.484 14.4815C149.429 14.4815 148.405 14.3098 147.351 13.9663C146.326 13.6229 145.453 13.1936 144.73 12.6498L143.615 15.0253C144.338 15.6263 145.332 16.1128 146.598 16.4562C147.863 16.8283 149.158 17 150.484 17C152.02 17 153.316 16.771 154.37 16.3418C155.425 15.9125 156.238 15.3114 156.75 14.5673C157.262 13.8232 157.534 12.9933 157.534 12.0774C157.534 11.0185 157.232 10.1599 156.66 9.53031C156.027 8.90068 155.304 8.44276 154.491 8.12794Z" fill="black"/>
<path d="M169.735 8.12794C168.891 7.81313 167.837 7.52694 166.542 7.24075C165.608 7.01179 164.854 6.81144 164.312 6.63973C163.77 6.46801 163.318 6.23905 162.956 5.92424C162.595 5.63804 162.414 5.23737 162.414 4.77946C162.414 4.09259 162.715 3.54883 163.348 3.14816C163.981 2.74748 164.915 2.54714 166.21 2.54714C166.994 2.54714 167.807 2.66162 168.62 2.89057C169.464 3.11953 170.247 3.43435 171 3.86365L172.025 1.48821C171.272 1.00168 170.398 0.658247 169.374 0.400672C168.349 0.143096 167.295 0.0286213 166.24 0.0286213C164.704 0.0286213 163.439 0.257574 162.384 0.686867C161.33 1.11616 160.546 1.71717 160.034 2.46128C159.522 3.20539 159.251 4.03536 159.251 4.95118C159.251 6.03873 159.552 6.89731 160.125 7.52694C160.727 8.15657 161.42 8.64309 162.233 8.92929C163.047 9.21548 164.131 9.53031 165.457 9.8165C166.391 10.0455 167.144 10.2458 167.686 10.4175C168.229 10.5892 168.681 10.8182 169.042 11.133C169.404 11.4478 169.584 11.8199 169.584 12.3064C169.584 12.9647 169.253 13.4798 168.62 13.8805C167.988 14.2812 167.024 14.4815 165.728 14.4815C164.674 14.4815 163.649 14.3098 162.595 13.9663C161.571 13.6229 160.697 13.1936 159.974 12.6498L158.859 15.0253C159.582 15.6263 160.576 16.1128 161.842 16.4562C163.107 16.8283 164.403 17 165.728 17C167.265 17 168.56 16.771 169.615 16.3418C170.669 15.9125 171.482 15.3114 171.995 14.5673C172.507 13.8232 172.778 12.9933 172.778 12.0774C172.778 11.0185 172.477 10.1599 171.904 9.53031C171.272 8.90068 170.579 8.44276 169.735 8.12794Z" fill="black"/>
<path d="M178.803 0.228961H175.58V16.771H178.803V0.228961Z" fill="black"/>
<path d="M196.036 1.08755C194.62 0.34344 192.993 0 191.246 0C189.468 0 187.871 0.372059 186.455 1.08755C185.039 1.83166 183.895 2.83334 183.081 4.14984C182.268 5.43772 181.876 6.8973 181.876 8.5C181.876 10.1027 182.268 11.5623 183.081 12.8502C183.895 14.138 185.009 15.1684 186.455 15.9125C187.871 16.6566 189.468 17 191.246 17C193.023 17 194.62 16.6279 196.036 15.9125C197.452 15.1684 198.597 14.1667 199.41 12.8788C200.223 11.5909 200.615 10.1313 200.615 8.5C200.615 6.86868 200.193 5.40909 199.41 4.12121C198.597 2.83333 197.482 1.80304 196.036 1.08755ZM196.578 11.4764C196.036 12.3636 195.313 13.0505 194.379 13.5657C193.445 14.0522 192.39 14.3098 191.246 14.3098C190.071 14.3098 189.046 14.0522 188.112 13.5657C187.178 13.0791 186.455 12.3636 185.913 11.4764C185.371 10.5892 185.13 9.58754 185.13 8.47138C185.13 7.35522 185.401 6.38215 185.913 5.49494C186.455 4.60774 187.178 3.92087 188.112 3.40572C189.046 2.91919 190.101 2.66162 191.246 2.66162C192.421 2.66162 193.445 2.91919 194.379 3.40572C195.313 3.89225 196.036 4.60774 196.578 5.49494C197.12 6.38215 197.361 7.38384 197.361 8.47138C197.361 9.58754 197.09 10.5892 196.578 11.4764Z" fill="black"/>
<path d="M215.92 11.4192L206.339 0.228961H203.658V16.771H206.882V5.55219L216.492 16.771H219.143V0.228961H215.92V11.4192Z" fill="black"/>
<path d="M228.784 0.228961L220.951 16.771H224.295L226.012 12.936H234.719L236.466 16.771H239.84L231.977 0.228961H228.784ZM227.097 10.532L230.35 3.29125L233.634 10.532H227.097Z" fill="black"/>
<path d="M244.902 14.1667V0.228961H241.678V16.771H254V14.1667H244.902Z" fill="black"/>
</svg>
