<svg width="18" height="18" viewBox="0 0 18 18" fill="none" xmlns="http://www.w3.org/2000/svg">
<path d="M17.1354 12.906L14.9574 10.71C14.5974 10.35 14.1114 10.134 13.6614 10.134C13.1754 10.134 12.7434 10.332 12.3654 10.71L11.1054 11.97C11.0514 11.934 10.9794 11.898 10.9254 11.88C10.9254 11.88 10.9074 11.88 10.9074 11.862L10.8894 11.844C10.7274 11.736 10.5474 11.628 10.3314 11.538C9.23342 10.854 8.20742 9.89995 7.16342 8.62195C6.67742 8.00995 6.33542 7.46995 6.06542 6.87595C6.35342 6.64195 6.56942 6.40795 6.73142 6.22795L7.28942 5.66995C7.72142 5.27395 7.93742 4.82395 7.93742 4.35595C7.93742 3.86995 7.72142 3.41995 7.30742 2.98795L5.59742 1.27795C5.43542 1.11595 5.27342 0.953953 5.09342 0.791953C4.73342 0.449953 4.28342 0.251953 3.81542 0.251953C3.29342 0.251953 2.86142 0.431953 2.46542 0.827953L1.15142 2.14195C0.629424 2.62795 0.323424 3.23995 0.251424 3.99595V4.01395C0.215424 4.94995 0.359423 5.81395 0.755423 6.89395C1.38542 8.58595 2.33942 10.17 3.76142 11.916C5.61542 14.004 7.70342 15.624 10.0254 16.74L10.0794 16.758C10.7634 17.064 12.0594 17.64 13.4994 17.73H13.6974C14.6514 17.73 15.3714 17.424 15.9654 16.776C16.1814 16.524 16.4154 16.29 16.6134 16.074C16.7754 15.948 16.8834 15.822 16.9914 15.696L17.1354 15.552L17.1714 15.516C17.9274 14.688 17.9274 13.68 17.1354 12.906ZM16.5054 14.904L16.3254 15.084L16.3074 15.12C16.2174 15.228 16.1454 15.318 16.0554 15.39L16.0014 15.444C15.7854 15.66 15.5334 15.912 15.2814 16.2C14.8674 16.65 14.3994 16.848 13.6974 16.848H13.5534C12.2934 16.758 11.1414 16.254 10.4574 15.948L10.4214 15.93C8.20742 14.868 6.20942 13.32 4.46342 11.34C3.09542 9.68395 2.19542 8.17195 1.60142 6.58795C1.24142 5.59795 1.11542 4.87795 1.15142 4.06795C1.20542 3.54595 1.40342 3.13195 1.76342 2.80795L3.09542 1.47595C3.31142 1.25995 3.52742 1.16995 3.79742 1.16995C4.03142 1.16995 4.24742 1.27795 4.44542 1.45795L4.46342 1.47595C4.62542 1.61995 4.78742 1.78195 4.94942 1.94395L6.65942 3.65395C6.98342 3.97795 7.03742 4.22995 7.03742 4.37395C7.03742 4.51795 7.00142 4.73395 6.65942 5.03995L6.08342 5.61595C5.88542 5.83195 5.65142 6.06595 5.34542 6.31795L5.30942 6.35395L5.27342 6.40795C5.11142 6.62395 5.09342 6.82195 5.18342 7.10995L5.20142 7.18195L5.21942 7.25395C5.52542 7.91995 5.90342 8.53195 6.44342 9.21595C7.55942 10.584 8.67542 11.61 9.86342 12.348L9.91742 12.384C10.0614 12.456 10.2054 12.528 10.3314 12.6C10.3854 12.654 10.4574 12.69 10.5114 12.708C10.5834 12.744 10.6374 12.762 10.6734 12.798L10.7994 12.888H10.8354L10.8894 12.906C10.9974 12.942 11.0694 12.942 11.1234 12.942C11.3034 12.942 11.4654 12.87 11.6274 12.708L12.9774 11.358C13.1934 11.142 13.3914 11.052 13.6434 11.052C13.9134 11.052 14.1654 11.214 14.3094 11.358L16.5054 13.554C16.9374 13.986 16.9554 14.436 16.5054 14.904Z" fill="black"/>
</svg>
